# xmcd
#
# Track frame offsets:
#	150
#	9358
#	21043
#	35363
#	45713
#	57558
#	75353
#	85903
#	97673
#	110190
#	121518
#	133863
#	144793
#	158308
#	169040
#	183650
#	200915
#	212670
#	224348
#	237125
#	250248
#	264768
#	277478
#	289188
#	300615
#
# Disc length: 4150 seconds
#
# Revision: 1
# Processed by: cddbd v1.5.2PL0 Copyright (c) Steve Scherf et al.
# Submitted via: audiograbber 1.83.01
#
DISCID=58103419
DTITLE=Various Artist - Compilation
DYEAR=1900
DGENRE=Country
TTITLE0=Marty Robbins - Ruby Ann
TTITLE1=Carl Smith - Loose Talk
TTITLE2=Glen Campbell - Wichita Lineman
TTITLE3=Statler Brothers - You Can't Your Kate and Edith Too
TTITLE4=George Jones - The Window Up Above
TTITLE5=Gene Watson - Paper Rosie
TTITLE6=Faron Young - Live Fast, Love Hard, Die Young
TTITLE7=Eddy Arnold - Bouquet Of Roses
TTITLE8=Dave and Sugar - The Door Is Always Open
TTITLE9=Freddie Hart - Easy Lovin'
TTITLE10=Loretta Lynn - Blue Kentucky Girl
TTITLE11=Hank Locklin - Please Help Me I'm Falling
TTITLE12=Bobby Helms - Special Angel
TTITLE13=Buck Owens - Under The Influence of Love
TTITLE14=Olivia Newton-John - If You Love Me (Let Me Know)
TTITLE15=Ray Price - You're The Best Thing That Ever Happened To Me
TTITLE16=Merle Haggard - Workin' Man Blues
TTITLE17=Jean Shepard and Ferlin Husky - Dear John Letter
TTITLE18=Hank Thompson - Oklahoma Hills
TTITLE19=Johnny Tillotson - It Keeps Right On A-Hurtin'
TTITLE20=Don Williams - Come Early Morning
TTITLE21=Kitty Wells - Making Believe
TTITLE22=Johnny Horton - The Battle of New Orleans
TTITLE23=Willie Nelson - The Party's Over
TTITLE24=Hank Williams - Why Don't You Love Me
EXTD=TM Century Gold Disc 1505
EXTT0=1963
EXTT1=
EXTT2=
EXTT3=
EXTT4=
EXTT5=
EXTT6=
EXTT7=
EXTT8=
EXTT9=
EXTT10=
EXTT11=
EXTT12=
EXTT13=
EXTT14=
EXTT15=
EXTT16=
EXTT17=
EXTT18=
EXTT19=
EXTT20=
EXTT21=
EXTT22=
EXTT23=
EXTT24=
PLAYORDER=
